<svg height="66.117" width="42.408" xmlns="http://www.w3.org/2000/svg"><defs><clipPath clipPathUnits="userSpaceOnUse" id="a"><path d="M1.081.855L38.804.238l2.925 62.878-41.495.099z" fill="none" stroke="#000"/></clipPath></defs><path d="M41.73 63.116h4.299V44.282h3.9v-2.666h-8.2zm10.542-21.5l-2.242 21.5h4.208l.4-5.713h2.027l.4 5.713h4.207l-2.242-21.5zm2.519 13.422l.737-10.757h.245l.737 10.757zm15.095-13.422h-3.564c-3.01 0-3.195 2.334-3.195 3.84v3.04h4.3V44.99c0-.552.43-.706.676-.706.4 0 .675.338.675.706v4.275c0 1.32-.43 1.597-1.658 1.597h-1.812v2.365h1.75c1.597 0 1.72.736 1.72 1.412v5c0 .37-.276.707-.675.707-.246 0-.676-.154-.676-.707V55.59h-4.3v3.686c0 1.505.185 3.84 3.195 3.84h3.564c3.012 0 3.196-2.335 3.196-3.84v-4.33c0-.768-.03-2.98-2.918-2.918v-.216c1.29.062 2.918-.583 2.918-2.917v-3.44c0-1.505-.184-3.839-3.196-3.839zm6.023 21.5h4.301V44.282h1.353v18.834h4.3v-21.5h-9.954zm19.536-21.5h-6.757v21.5h4.301v-7.31h2.456c3.01 0 3.195-2.334 3.195-3.84v-6.51c0-1.506-.184-3.84-3.195-3.84zm-1.105 10.75c0 .676-.337 1.075-.798 1.075h-.553v-9.159h.553c.46 0 .798.4.798 1.075zm13.885-10.75h-3.563c-3.01 0-3.195 2.334-3.195 3.84v13.82c0 1.505.185 3.84 3.195 3.84h3.563c3.01 0 3.193-2.335 3.193-3.84v-13.82c0-1.506-.184-3.84-3.193-3.84zm-1.106 18.022c0 .37-.276.707-.675.707-.246 0-.676-.154-.676-.707v-14.65c0-.552.43-.706.676-.706.4 0 .675.339.675.707zm18.306-18.022l-2.794 15.112-2.796-15.112h-5.59v21.5h4.3V49.633h.155l2.21 13.483h3.44l2.212-13.483h.153v13.483h4.3v-21.5zm-97.81-7.61c1.005 2.412 2.511 4.992 3.491 6.261 1.436-1.866 4.738-7.43 5.766-14.703.574-4.042.598-7.582-.717-13.347C34.838 6.452 31.539 1.765 31.083 1c-.717 1.076-3.35 5.214-4.688 9.808-1.46 5.118-1.675 9.661-1.172 14.136.502 4.473 2.392 9.064 2.392 9.064zm3.469 4.826c-.647-1.22-1.65-3.536-1.747-7.12-.024-3.468 1.364-6.435 1.77-7.056.36.62 1.555 3.206 1.697 6.745.098 3.464-1.05 6.187-1.72 7.43zm-4.64-19.08c.115-2.986.812-6.052 1.195-7.463 1.459-4.713 3.11-7.725 3.42-8.203.311.478 2.392 4.186 3.47 8.085 1.074 3.897 1.29 7.63 1.244 9.83-.05 2.2-.312 4.52-.647 5.908.12-2.391-.167-5.764-.717-8.396-.55-2.631-2.105-7.032-3.35-9.066-1.147 1.938-2.56 5.742-3.3 9.042-.743 3.302-.765 7.295-.765 8.493-.197-1.01-.692-4.61-.55-8.23zm-3.136 28.576l.024-.028a6.042 6.042 0 018.543 8.543l-.031.027v.003l-.036.03a12.026 12.026 0 01-8.5 3.506 12.03 12.03 0 01-8.532-3.534c-4.152-4.151-4.644-10.573-1.48-15.265.428-.634.92-1.237 1.48-1.797a12.027 12.027 0 018.531-3.53V20.135c-11.866 0-21.485 9.618-21.485 21.475 0 11.864 9.62 21.484 21.485 21.484 6.187 0 11.76-2.616 15.68-6.8V41.61h-15.68v6.718z" clip-path="url(#a)" transform="translate(.678 1.001)" fill="#fff"/></svg>